<svg xmlns="http://www.w3.org/2000/svg" viewBox="0 0 20 20"><path class="st0" d="M10 8.7c-.7 0-1.3.6-1.3 1.3s.6 1.3 1.3 1.3 1.3-.6 1.3-1.3-.6-1.3-1.3-1.3z" fill="#333333"/><path class="st0" d="M16.2 5.2l-.9.3c-.7-.2-1.7-.1-2.8.1-.5-1.8-1.3-3.1-2.5-3.1S8 3.8 7.5 5.6a6.8 6.8 0 0 0-2.8-.1c-.2-.2-.5-.3-.9-.3-.7 0-1.3.6-1.3 1.3 0 .6.4 1.1 1 1.3.2.6.7 1.4 1.5 2.2l-.5.6c-1 1.2-1.3 2.2-1 3l-.1.4c0 .7.6 1.3 1.3 1.3.5 0 .9-.3 1.1-.7l1.6-.3c.5 1.8 1.4 3.1 2.5 3.1 1.2 0 2-1.3 2.5-3.1 1.7.4 3.3.5 3.9-.6.5-.8.1-1.9-.9-3.1l-.5-.6c.8-.8 1.3-1.6 1.5-2.3.5-.2 1-.7 1-1.3.1-.6-.5-1.2-1.2-1.2zm-1.3 1.1v.2c0 .5.3 1 .8 1.2-.2.5-.6 1.1-1.2 1.7L13 8.3l-.3-1.8c.9-.2 1.6-.3 2.2-.2zm-3.8 5.6l-1.1.6-1.1-.6-1.1-.7V10 8.8l1.1-.7 1.1-.6 1.1.6 1.1.7v2.4l-1.1.7zm.9.5l-.2.9-.9-.3.5-.3.6-.3zm-3 .5l-.8.3-.2-.8.5.3.5.2zm-2.1-2.3l-.7-.6.7-.6v1.2zm1.1-3l.1-.9.9.4-.5.2-.5.3zm3-.5l.9-.3.1.8-.5-.3-.5-.2zm2.1 2.3l.7.6-.7.6V10v-.6zm-3.1-6c.6 0 1.2 1 1.7 2.5l-1.7.7-1.7-.7c.5-1.5 1.1-2.5 1.7-2.5zM7.3 6.5L7 8.3 5.6 9.4c-.6-.6-1-1.2-1.2-1.7.4-.2.8-.7.8-1.2v-.2c.5-.1 1.2 0 2.1.2zM6 13.7c-.1-.6-.6-1.1-1.3-1.1l-.5.1c.1-.4.4-1 .9-1.6l.5-.5L7 11.7l.3 1.8-1.3.2zm4 2.9c-.6 0-1.2-1-1.7-2.5l1.7-.7 1.7.7c-.5 1.5-1.1 2.5-1.7 2.5zm5.7-3.3c-.3.5-1.4.6-3 .2l.3-1.8 1.4-1.1.5.5c.8 1 1.1 1.8.8 2.2z" fill="#333333"/></svg>
