<svg id="Layer_1" xmlns="http://www.w3.org/2000/svg" viewBox="0 0 20 20"><g id="Mobile"><g id="Mobile---Filter---all-filters" transform="translate(-116 -328)"><g id="Location-facilities" transform="translate(10 255)"><g id="filter-bathroom" transform="translate(94 64)"><g id="wc" transform="translate(12 9)"><path id="Path" class="st2" d="M6.8 6.1c.7 0 1.3-.6 1.3-1.3 0-.7-.6-1.3-1.3-1.3s-1.3.6-1.3 1.3c0 .7.6 1.3 1.3 1.3z"/><path class="st2" d="M12.6 6.1c.7 0 1.3-.6 1.3-1.3 0-.7-.6-1.3-1.3-1.3-.7 0-1.3.6-1.3 1.3 0 .7.6 1.3 1.3 1.3zM7.7 6.7H5.8c-.7 0-1.3.6-1.3 1.3v3.6h1v4.9h2.6v-4.9h1V8c-.1-.7-.6-1.3-1.4-1.3zM13.9 7.6c-.2-.5-.7-.9-1.2-.9h-.1c-.6 0-1.1.4-1.2.9l-1.7 5h1.9v3.9h1.9v-3.9h1.9l-1.5-5z"/></g></g></g></g></g></svg>
