<svg xmlns="http://www.w3.org/2000/svg" viewBox="0 0 20 20"><g id="Mobile"><g fill="#1e6188" id="Mobile---Filter---all-filters" transform="translate(-190 -397)"><g id="Collaboration-facilities" transform="translate(10 364)"><g id="filter-smartboard" transform="translate(169 24)"><g id="smartboard"><path class="st0" d="M14.8 14.5H4.3c-1 0-1.8-.7-1.8-1.8V5.3c0-1 .7-1.8 1.8-1.8h10.5c1 0 1.8.7 1.8 1.8v7.4c-.1 1-.8 1.8-1.8 1.8zM4.3 5c-.2 0-.3.1-.3.3v7.4c0 .2.1.3.3.3h10.5c.2 0 .2-.1.2-.2V5.3c0-.2 0-.3-.2-.3H4.3z" transform="translate(11 9)"/><path class="st0" d="M13.7 15.5H5.5L5 15v-1.5l.5-.5H14l.5.5-.1 1.4z" transform="translate(11 9)"/></g></g></g></g></g></svg>
