<svg xmlns="http://www.w3.org/2000/svg" viewBox="0 0 20 20"><path fill="#1e6188" d="M10 5c1.2 0 2.2 1 2.2 2.2s-1 2.2-2.2 2.2-2.2-1-2.2-2.2S8.8 5 10 5zM5.6 6.6c.4 0 .7.1 1 .3-.1.9.2 1.8.7 2.5-.3.6-.9 1-1.7 1a1.9 1.9 0 1 1 0-3.8zm8.8 0c1 0 1.9.8 1.9 1.9s-.8 1.9-1.9 1.9a2 2 0 0 1-1.7-1c.5-.7.8-1.6.7-2.5.3-.2.6-.3 1-.3zM5.9 13c0-1.3 1.8-2.3 4.1-2.3s4.1 1 4.1 2.3v1.1H6V13h-.1zm-3.4 1.1v-.9c0-.9 1.2-1.6 2.8-1.8-.4.4-.6 1-.6 1.7v1.1H2.5v-.1zm15 0h-2.2V13c0-.6-.2-1.2-.6-1.7 1.6.2 2.8.9 2.8 1.8v1z"/></svg>
