<svg xmlns="http://www.w3.org/2000/svg" viewBox="0 0 24 24"><path d="M15.6 13.5l.3.2c0 .1 0 .5-.2.9s-.9.8-1.3.8c-.3 0-.4.3-2.2-.5-1.9-.8-3-2.8-3.1-2.9-.1-.1-.7-1-.7-2 0-.9.5-1.4.7-1.5.2-.2.4-.2.5-.2h.4c.1 0 .3 0 .4.3L11 10v.3l-.2.3-.3.3c-.1.1-.2.2-.1.4l1 1.3c.7.7 1.3.9 1.5 1 .2.1.3.1.4 0l.6-.7c.1-.2.3-.1.4-.1l1.3.7m-3.6-9c4.1 0 7.5 3.4 7.5 7.5s-3.4 7.5-7.5 7.5c-1.5 0-2.9-.4-4-1.2l-3.5 1.2L5.7 16a7.8 7.8 0 0 1-1.2-4c0-4.1 3.4-7.5 7.5-7.5M12 6a6 6 0 0 0-4.9 9.5l-.7 2.2 2.2-.7a6 6 0 0 0 9.5-4.9C18.1 8.8 15.3 6 12 6z"/></svg>
