<svg viewBox="0 0 20 20" xmlns="http://www.w3.org/2000/svg"><path d="M14.4 12a16.5 16.5 0 0 0 0-4h3.3a8.2 8.2 0 0 1 0 4h-3.3zm-1.8 5.6c.6-1.2 1-2.4 1.4-3.6h3a8 8 0 0 1-4.4 3.6zm-.3-5.6H7.7a13.3 13.3 0 0 1 0-4h4.6a14.6 14.6 0 0 1 0 4zM10 18c-.8-1.2-1.5-2.6-2-4h4c-.5 1.4-1.2 2.8-2 4zM6 6H3a8 8 0 0 1 4.4-3.6C6.8 3.5 6.4 4.8 6 6zm-3 8h3c.3 1.3.8 2.4 1.4 3.6A8 8 0 0 1 3.1 14zm-.7-2a8.2 8.2 0 0 1 0-4h3.3a16.5 16.5 0 0 0 0 4H2.3zM10 2c.8 1.2 1.5 2.6 2 4H8c.5-1.4 1.2-2.8 2-4zm7 4h-3c-.3-1.3-.8-2.5-1.4-3.6A8 8 0 0 1 16.9 6zm-7-6a10 10 0 1 0 0 20 10 10 0 0 0 0-20z" fill="#333" fill-rule="nonzero"/></svg>
