<svg xmlns="http://www.w3.org/2000/svg" xml:space="preserve" id="Layer_1" x="0" y="0"
     style="enable-background:new 0 0 70 16" version="1.1" viewBox="0 0 70 16"><style>.st2,.st3,.st4{fill-rule:evenodd;clip-rule:evenodd}.st2{fill:#fff;stroke:#dbdcde}.st3{fill:#dbdcde}.st4{fill:#009b77}</style>
  <g id="Page-1"><g id="map-2---clustering-overview-C" transform="translate(-162 -266)"><g id="EEMS-28" transform="translate(162 266)"><g id="Group"><path id="Rectangle" d="M8 0h54c4.4 0 8 3.6 8 8s-3.6 8-8 8H8c-4.4 0-8-3.6-8-8s3.6-8 8-8z" style="fill-rule:evenodd;clip-rule:evenodd;fill:#fff"/><circle
    id="Oval" cx="8" cy="8" r="6.5" style="fill-rule:evenodd;clip-rule:evenodd;fill:#8d17ab"/></g></g></g></g>
  <g transform="translate(8)"><path d="M15.6 13.7h3.2V9.8h.8v-4c0-.7-.6-1.2-1.2-1.2h-1.6c-.6 0-1.2.5-1.2 1.2v7.9z" class="st2"/>
    <circle cx="17.8" cy="2.4" r=".9" class="st3"/></g>
  <g transform="translate(4.5)"><path d="M17.3 13.7h2.3V9.8h.8v-4c0-.7-.6-1.2-1.2-1.2h-1.6c-.6 0-1.2.5-1.2 1.2v4h.8v3.9z" class="st2"/>
    <circle cx="18.6" cy="2.4" r=".9" class="st3"/></g>
  <g transform="translate(.7)"><path d="M18.6 14.1h2.5V9.9h.9V5.6c0-.7-.6-1.3-1.3-1.3H19c-.7 0-1.3.6-1.3 1.3v4.3h.9v4.2z" class="st4"/>
    <path d="M18.4 14.5h2.9v-4.2h1V5.4c0-.8-.7-1.5-1.5-1.5h-2c-.8 0-1.5.7-1.5 1.5v4.8h1v4.3h.1z"
          style="fill:none;stroke:#fff"/>
    <circle cx="19.8" cy="2.4" r=".9" class="st4"/></g></svg>
