<svg xmlns="http://www.w3.org/2000/svg" width="800px" height="800px" viewBox="0 0 26 33">
  <g fill="none" fill-rule="evenodd">
    <path fill="#FFF" d="M13.483 30.7c-16.377-15.797-16.377-25.33 0-28.6 16.956 3.476 16.956 13.01 0 28.6Z"/>
    <path fill="#FFB81C" fill-rule="nonzero"
          d="M13.2 33c-4.427-3.767-7.734-7.267-9.92-10.498C1.092 19.27 0 16.28 0 13.53c0-4.125 1.327-7.411 3.98-9.859C6.635 1.224 9.708 0 13.2 0c3.492 0 6.566 1.224 9.22 3.671 2.653 2.448 3.98 5.734 3.98 9.859 0 2.75-1.093 5.74-3.28 8.972-2.186 3.231-5.492 6.73-9.92 10.498Zm0-3.259c3.658-3.327 6.36-6.345 8.106-9.054 1.746-2.709 2.619-5.095 2.619-7.157 0-3.24-1.035-5.892-3.106-7.957-2.07-2.065-4.61-3.098-7.619-3.098-3.009 0-5.549 1.033-7.62 3.098-2.07 2.065-3.105 4.718-3.105 7.957 0 2.063.894 4.448 2.681 7.157 1.788 2.709 4.469 5.727 8.044 9.054Z"/>
    <g transform="translate(13.7 4)">
      <path fill="#FFF" stroke="#DBDCDE"
            d="M0 16.693h4.184v-5.215H5.23V6.236c0-.884-.764-1.573-1.569-1.573H1.57C.726 4.663 0 5.361 0 6.236v10.457Z"/>
      <circle cx="2.865" cy="1.663" r="1.2" fill="#DBDCDE"/>
    </g>
    <g transform="translate(9.9 4)">
      <path fill="#FFB81C"
            d="M1.64 17.21h3.37v-5.648h1.132V5.884c0-.958-.827-1.704-1.7-1.704H2.178c-.914 0-1.7.755-1.7 1.704v5.678H1.64v5.648Z"/>
      <path stroke="#FFF"
            d="M1.346 17.694h3.902v-5.63H6.56V5.652c0-1.109-.958-1.973-1.968-1.973H1.968A1.983 1.983 0 0 0 0 5.653v6.41h1.346v5.63Z"/>
      <circle cx="3.2" cy="1.7" r="1.2" fill="#FFB81C"/>
    </g>
    <g transform="translate(6.4 4)">
      <path fill="#FFB81C"
            d="M1.64 17.21h3.37v-5.648h1.132V5.884c0-.958-.827-1.704-1.7-1.704H2.178c-.914 0-1.7.755-1.7 1.704v5.678H1.64v5.648Z"/>
      <path stroke="#FFF"
            d="M1.346 17.694h3.902v-5.63H6.56V5.652c0-1.109-.958-1.973-1.968-1.973H1.968A1.983 1.983 0 0 0 0 5.653v6.41h1.346v5.63Z"/>
      <circle cx="3.2" cy="1.7" r="1.2" fill="#FFB81C"/>
    </g>
  </g>
</svg>
