<svg xmlns="http://www.w3.org/2000/svg" width="800px" height="800px" viewBox="-5 0 30 33">
  <g fill="none" fill-rule="evenodd">
    <path fill="#FFF" d="M13.483 30.7c-16.377-15.797-16.377-25.33 0-28.6 16.956 3.476 16.956 13.01 0 28.6Z"/>
    <path fill="#DBDCDE" fill-rule="nonzero"
          d="M13.2 33c-4.427-3.767-7.734-7.267-9.92-10.498C1.092 19.27 0 16.28 0 13.53c0-4.125 1.327-7.411 3.98-9.859C6.635 1.224 9.708 0 13.2 0c3.492 0 6.566 1.224 9.22 3.671 2.653 2.448 3.98 5.734 3.98 9.859 0 2.75-1.093 5.74-3.28 8.972-2.186 3.231-5.492 6.73-9.92 10.498Zm0-3.259c3.658-3.327 6.36-6.345 8.106-9.054 1.746-2.709 2.619-5.095 2.619-7.157 0-3.24-1.035-5.892-3.106-7.957-2.07-2.065-4.61-3.098-7.619-3.098-3.009 0-5.549 1.033-7.62 3.098-2.07 2.065-3.105 4.718-3.105 7.957 0 2.063.894 4.448 2.681 7.157 1.788 2.709 4.469 5.727 8.044 9.054Z"/>
    <g transform="translate(13.7 4)">
      <path fill="#FFF" stroke="#DBDCDE"
            d="M0 16.693h4.184v-5.215H5.23V6.236c0-.884-.764-1.573-1.569-1.573H1.57C.726 4.663 0 5.361 0 6.236v10.457Z"/>
      <circle cx="2.865" cy="1.663" r="1.2" fill="#DBDCDE"/>
    </g>
    <g transform="translate(10.2 4)">
      <path fill="#FFF" stroke="#DBDCDE"
            d="M1.074 16.693h3.11v-5.215H5.23V6.236c0-.884-.764-1.573-1.569-1.573H1.57C.726 4.663 0 5.361 0 6.236v5.242h1.074v5.215Z"/>
      <circle cx="2.883" cy="1.663" r="1.2" fill="#DBDCDE"/>
    </g>
    <g transform="translate(6.1 4.463)">
      <circle cx="3.2" cy="1.2" r="1.2" fill="#DBDCDE"/>
      <path fill="#FFF" stroke="#DBDCDE"
            d="M1.574 16.23h3.11v-5.215H5.73V5.773c0-.884-.764-1.573-1.569-1.573H2.07C1.226 4.2.5 4.897.5 5.773v5.242h1.074v5.215Z"/>
    </g>
    <g transform="translate(7.8 9)">
      <circle cx="5" cy="5.7" r="5" fill="#FFF"/>
      <path fill="#DBDCDE" fill-rule="nonzero"
            d="M5.804 7.012a1.393 1.393 0 0 1 .108-.762c.104-.22.24-.424.408-.612.168-.188.34-.378.516-.57a2.99 2.99 0 0 0 .444-.63c.12-.228.18-.49.18-.786 0-.472-.1-.86-.3-1.164-.2-.304-.47-.528-.81-.672A2.945 2.945 0 0 0 5.192 1.6c-.464 0-.892.1-1.284.3-.392.2-.728.464-1.008.792l.972.888c.16-.16.326-.292.498-.396.172-.104.37-.156.594-.156.24 0 .434.064.582.192.148.128.222.316.222.564 0 .176-.058.35-.174.522a4.327 4.327 0 0 1-.426.528 6.55 6.55 0 0 0-.486.588 2.583 2.583 0 0 0-.366.708c-.088.26-.108.554-.06.882h1.548Zm-.78 2.916c.304 0 .558-.106.762-.318a1.09 1.09 0 0 0 .306-.786c0-.32-.102-.586-.306-.798a1.014 1.014 0 0 0-.762-.318.995.995 0 0 0-.756.318c-.2.212-.3.478-.3.798 0 .312.1.574.3.786.2.212.452.318.756.318Z"/>
    </g>
  </g>
</svg>
