<svg id="Layer_1" xmlns="http://www.w3.org/2000/svg" viewBox="0 0 20 20"><style>.st0{fill:#333}</style><g id="Mobile"><g id="Mobile---Filter---all-filters" transform="translate(-22 -287)"><g id="Location-facilities" transform="translate(10 255)"><g id="filter-ergonomic-chairs" transform="translate(0 24)"><g id="office-chair" transform="translate(12 8)"><path id="Path" class="st0" d="M13.2 8.8c-.3 0-.5.2-.5.5V11c-.4-2.1-.4-4.4.1-6.5 0-.2 0-.4-.2-.4-.9-.4-1.8-.5-2.8-.5-.9-.1-1.8.1-2.7.4-.2.1-.3.3-.2.5.4 2.1.5 4.3.1 6.5V9.3c0-.3-.3-.5-.5-.5S6 9 6 9.3v2.8c0 .3.2.5.5.5h6.7c.3 0 .5-.2.5-.5V9.3c0-.3-.2-.5-.5-.5z"/><path class="st0" d="M13.3 15l-.2-.4-3-1.9h-.5l-3 1.9-.2.4v.4l-.2.4c0 .4.3.6.6.6.4 0 .6-.3.6-.6l-.2-.4v-.1l2-1.3v1.4l-.2.4c0 .4.3.6.6.6.4 0 .6-.3.6-.6l-.2-.4V14l2 1.3v.1l-.2.4c0 .4.3.6.6.6.4 0 .6-.3.6-.6l-.2-.4.5-.4z"/></g></g></g></g></g></svg>