<svg xmlns="http://www.w3.org/2000/svg" xml:space="preserve" id="Layer_1" x="0" y="0"
     style="enable-background:new 0 0 70 16" version="1.1" viewBox="0 0 70 16"><style>.st0{fill:#fff}.st0,.st2,.st3{fill-rule:evenodd;clip-rule:evenodd}.st2{fill:#fff;stroke:#dbdcde}.st3{fill:#dbdcde}</style>
  <g id="Page-1"><g id="map-2---clustering-overview-C" transform="translate(-162 -266)"><g id="EEMS-28" transform="translate(162 266)"><g id="Group"><path id="Rectangle" d="M8 0h54c4.4 0 8 3.6 8 8s-3.6 8-8 8H8c-4.4 0-8-3.6-8-8s3.6-8 8-8z" class="st0"/><circle
    id="Oval" cx="8" cy="8" r="6.5" style="fill-rule:evenodd;clip-rule:evenodd;fill:#8d17ab"/></g></g></g></g>
  <g transform="translate(8)"><path d="M15.7 13.5h3.1V9.6h.8V5.8c0-.7-.6-1.2-1.2-1.2h-1.5c-.6 0-1.2.5-1.2 1.2v7.7z" class="st2"/>
    <circle cx="17.8" cy="2.4" r=".9" class="st3"/></g>
  <g transform="translate(4.5)"><path d="M17.4 13.5h2.3V9.6h.8V5.8c0-.7-.6-1.2-1.2-1.2h-1.5c-.6 0-1.2.5-1.2 1.2v3.9h.8v3.8z" class="st2"/>
    <circle cx="18.7" cy="2.4" r=".9" class="st3"/></g>
  <g transform="translate(.4 .463)"><circle cx="20" cy="1.9" r=".9" class="st3"/>
    <path d="M18.8 13h2.3V9.2h.8V5.3c0-.7-.6-1.2-1.2-1.2h-1.5c-.6 0-1.2.5-1.2 1.2v3.9h.8V13z" class="st2"/></g>
  <g transform="translate(2.1 5)"><circle cx="20.9" cy="4.1" r="3.7" class="st0"/>
    <path
      d="M21.5 5c0-.2 0-.4.1-.6.1-.2.2-.3.3-.5l.4-.4c.1-.1.2-.3.3-.5.1-.2.1-.4.1-.6 0-.3-.1-.6-.2-.9s-.3-.4-.6-.5c-.2.1-.5 0-.8 0-.3 0-.7.1-.9.2s-.5.3-.7.6l.7.7c.1-.1.2-.2.4-.3.1-.1.3-.1.4-.1.2 0 .3 0 .4.1.1.1.2.2.2.4 0 .1 0 .3-.1.4-.1.1-.2.3-.3.4-.1.1-.2.3-.4.4-.1.2-.2.3-.3.5-.1.2-.1.4 0 .7h1zm-.6 2.2c.2 0 .4-.1.6-.2.2-.2.2-.4.2-.6 0-.2-.1-.4-.2-.6-.1-.2-.4-.2-.6-.2-.2 0-.4.1-.6.2-.1.2-.2.4-.2.6 0 .2.1.4.2.6.2.1.4.2.6.2z"
      style="fill:#dbdcde"/></g></svg>
