<svg xmlns="http://www.w3.org/2000/svg" xml:space="preserve" id="Layer_1" x="0" y="0"
     style="enable-background:new 0 0 70 16" version="1.1" viewBox="0 0 70 16"><style>.st4{fill-rule:evenodd;clip-rule:evenodd;fill:#ffb81c}.st5{fill:none;stroke:#fff}</style>
  <g id="Page-1"><g id="map-2---clustering-overview-C" transform="translate(-162 -266)"><g id="EEMS-28" transform="translate(162 266)"><g id="Group"><path id="Rectangle" d="M8 0h54c4.4 0 8 3.6 8 8s-3.6 8-8 8H8c-4.4 0-8-3.6-8-8s3.6-8 8-8z" style="fill-rule:evenodd;clip-rule:evenodd;fill:#fff"/><circle
    id="Oval" cx="8" cy="8" r="6.5" style="fill-rule:evenodd;clip-rule:evenodd;fill:#8d17ab"/></g></g></g></g>
  <g transform="translate(8)"><path d="M15.5 13.7h3.2V9.8h.8v-4c0-.7-.6-1.2-1.2-1.2h-1.6c-.6 0-1.2.5-1.2 1.2v7.9z" style="fill-rule:evenodd;clip-rule:evenodd;fill:#fff;stroke:#dbdcde"/>
    <circle cx="17.7" cy="2.4" r=".9" style="fill-rule:evenodd;clip-rule:evenodd;fill:#dbdcde"/></g>
  <g transform="translate(4.2)"><path d="M17.7 14.1h2.5V9.9h.9V5.6c0-.7-.6-1.3-1.3-1.3h-1.7c-.7 0-1.3.6-1.3 1.3v4.3h.9v4.2z" class="st4"/>
    <path d="M17.5 14.5h2.9v-4.2h1V5.4c0-.8-.7-1.5-1.5-1.5h-2c-.8 0-1.5.7-1.5 1.5v4.8h1v4.3h.1z" class="st5"/>
    <circle cx="18.9" cy="2.4" r=".9" class="st4"/></g>
  <g transform="translate(.7)"><path d="M18.5 14.1H21V9.9h.9V5.6c0-.7-.6-1.3-1.3-1.3h-1.7c-.7 0-1.3.6-1.3 1.3v4.3h.9v4.2z" class="st4"/>
    <path d="M18.3 14.5h2.9v-4.2h1V5.4c0-.8-.7-1.5-1.5-1.5h-2c-.8 0-1.5.7-1.5 1.5v4.8h1v4.3h.1z" class="st5"/>
    <circle cx="19.7" cy="2.4" r=".9" class="st4"/></g></svg>
