<svg xmlns="http://www.w3.org/2000/svg" width="18" height="18">
  <style>
    path { fill: #000; }
    @media (prefers-color-scheme: dark) { path { fill: #fff; } }
  </style>
  <path d="M13.44 9.86c-1.28.41-2.62.08-2.6-1.65 0-2.65 6.15-4.87 7-7.18.21-.57.23-1.05-.05-1.03-.2.01-.04.3-.47.73-2.55 2.58-6.83 2.57-10.1 4.06-2.15.97-8.46 3.96-7 10.63.06.32.25 1.37.44 1.37.22 0 .22-.63.22-1.39-.05-3.97 4.61-5.08 6.14-7.67.17-.32.5-.75.56-.55.04.1.01.24-.05.53-.48 2.13-2.68 3.5-2.06 5.02.82 1.98 3.16.5 3.88-.77.19-.35.3-.57.43-.53.1.03.09.43.03.79-.39 2.3-.9 3.58-2.58 4.9-.53.42-1.37.5-1.26.82.03.08.39.07.68.04 4.43-.3 8.14-5.56 9.12-9.01.1-.24.13-.47.03-.55-.13-.1-.32.13-.52.3a5.3 5.3 0 0 1-1.84 1.14z"/>
</svg>
