<svg viewBox="0 0 101 40" xmlns="http://www.w3.org/2000/svg"><g fill="#FFF" fill-rule="nonzero"><path d="M29 36.2c2.5 0 3.9-1.7 3.9-4V20h5.3v12.4c0 5.5-4.3 7.6-9.2 7.6-4.8 0-9-2.1-9.1-7.6V20h5.3v12.1c0 2.4 1.3 4.1 3.8 4.1M74.8 32.8v-1.3c0-4-2-6.9-6-6.9-4.2 0-6.2 3.6-6.2 7.8 0 4.3 1.7 7.6 6 7.6 3.3 0 5.7-1.6 6-5H72c-.3 2.2-1.3 3-3.3 3-2.6 0-3.5-2.5-3.5-5.2h9.6zM65.3 31c0-2.2 1.3-4.3 3.4-4.3 2.5 0 3.4 1.8 3.4 4.3h-6.8zM77.9 20h3v20h-3zM5.8 40H11V23.9h5.8V20H0v3.9h5.8V40M19.8 10.1c-1.3.4-2.7 0-2.7-1.7 0-2.7 6.3-5 7.2-7.3.2-.6.2-1.1 0-1.1-.3 0-.1.3-.6.8-2.6 2.6-6.9 2.6-10.2 4.1-2.2 1-8.7 4-7.2 11 .1.2.3 1.3.5 1.3s.2-.6.2-1.4c0-4 4.7-5.2 6.2-7.9.2-.3.6-.7.6-.5v.5c-.5 2.2-2.8 3.6-2.1 5.1.8 2 3.2.6 4-.7.1-.4.2-.6.4-.6v.8c-.4 2.4-1 3.7-2.6 5-.6.5-1.4.6-1.3.9h.7c4.5-.3 8.3-5.7 9.3-9.2v-.6l-.5.4c-.5.4-1.3.9-2 1.1M89.5 40V28.2h3.3v-1.8h-3.3v-2.2c0-1.6.8-1.9 2.3-1.9l1.4.1v-2.1c-.7-.2-1.3-.3-2-.3-2.5 0-4.4 1.2-4.4 3.8v2.6H84v1.8h2.8V40h2.7M93.2 26.6v1.7h2.2v8.3c0 1.7 0 3.4 3.6 3.4.6 0 1.1 0 1.7-.2V38a6 6 0 0 1-1.3.1c-.9 0-1.6-.4-1.6-1.4v-8.4h3v-1.7h-3v-3.5l-2.4.8v2.7h-2.2M46.9 22.4h3.8c4.3 0 6.1 3.5 6.1 7.6s-1.8 7.6-6 7.6h-4V22.4zM44.3 40h6.4c8 0 8.9-7.2 8.9-10s-.9-10-8.9-10h-6.4v20z"/></g></svg>